<?xml version="1.0" standalone="no"?>
<!DOCTYPE svg PUBLIC "-//W3C//DTD SVG 20010904//EN"
 "http://www.w3.org/TR/2001/REC-SVG-20010904/DTD/svg10.dtd">
<svg version="1.0" xmlns="http://www.w3.org/2000/svg"
 width="120.000000pt" height="27.000000pt" viewBox="0 0 120.000000 27.000000"
 preserveAspectRatio="xMidYMid meet">

<g transform="translate(0.000000,27.000000) scale(0.100000,-0.100000)"
fill="#000000" stroke="none">
<path d="M640 135 l0 -135 40 0 39 0 3 68 c3 59 5 67 23 67 18 0 20 -8 23 -67
l3 -68 41 0 40 0 -4 81 c-3 72 -6 83 -28 101 -19 15 -33 18 -62 14 l-38 -6 0
40 0 40 -40 0 -40 0 0 -135z"/>
<path d="M0 125 l0 -125 40 0 40 0 0 40 0 40 50 0 c49 0 50 1 50 29 0 28 -2
30 -47 33 -40 3 -48 6 -48 23 0 17 8 20 58 23 56 3 57 4 57 32 l0 30 -100 0
-100 0 0 -125z"/>
<path d="M250 189 c-33 -14 -33 -14 -21 -38 9 -16 18 -19 40 -15 16 4 37 1 48
-5 15 -9 13 -10 -17 -11 -57 -1 -85 -20 -85 -60 0 -46 39 -70 85 -53 16 6 30
7 30 2 0 -5 19 -9 41 -9 l42 0 -5 76 c-4 58 -10 80 -25 96 -24 24 -96 33 -133
17z m80 -118 c0 -6 -5 -13 -10 -16 -15 -9 -43 3 -35 15 8 13 45 13 45 1z"/>
<path d="M490 193 c-46 -18 -65 -68 -36 -92 8 -7 30 -15 50 -18 59 -9 57 -27
-1 -20 -46 5 -51 4 -57 -16 -8 -32 8 -41 73 -42 66 0 101 21 101 60 0 29 -19
45 -64 52 -53 8 -57 25 -6 22 37 -3 45 0 53 19 6 12 8 25 5 27 -8 9 -102 15
-118 8z"/>
<path d="M933 185 c-38 -16 -53 -42 -53 -88 0 -78 108 -124 180 -78 12 8 12
13 -4 30 -13 15 -26 18 -51 14 -19 -3 -35 -1 -39 6 -5 8 13 11 58 11 59 0 66
2 66 19 0 40 -20 72 -55 86 -42 18 -61 18 -102 0z m82 -55 c4 -6 -7 -10 -25
-10 -18 0 -29 4 -25 10 3 6 15 10 25 10 10 0 22 -4 25 -10z"/>
<path d="M1126 74 c-20 -20 -20 -38 0 -59 20 -20 42 -16 60 10 12 18 11 24 -2
43 -18 26 -37 28 -58 6z" fill="#e65540"/>
</g>
</svg>
